<mxfile host="app.diagrams.net" modified="2022-05-12T01:23:33.268Z" agent="5.0 (Windows NT 10.0; Win64; x64) AppleWebKit/537.36 (KHTML, like Gecko) Chrome/101.0.4951.54 Safari/537.36 Edg/101.0.1210.39" etag="w4cDrnmBR2AbrRBvJ6RD" version="18.0.3" type="github">
  <diagram id="Z_xTUL372uZlxIhNGOhU" name="Page-1">
    <mxGraphModel dx="1298" dy="724" grid="1" gridSize="10" guides="1" tooltips="1" connect="1" arrows="1" fold="1" page="1" pageScale="1" pageWidth="827" pageHeight="1169" math="0" shadow="0">
      <root>
        <mxCell id="0" />
        <mxCell id="1" parent="0" />
        <mxCell id="dUpmVTzHK90mjqvTU03A-8" value="用户" style="rounded=0;whiteSpace=wrap;html=1;" vertex="1" parent="1">
          <mxGeometry x="110" y="250" width="60" height="20" as="geometry" />
        </mxCell>
        <mxCell id="dUpmVTzHK90mjqvTU03A-9" value="骑手" style="rounded=0;whiteSpace=wrap;html=1;" vertex="1" parent="1">
          <mxGeometry x="190" y="560" width="60" height="20" as="geometry" />
        </mxCell>
        <mxCell id="dUpmVTzHK90mjqvTU03A-13" value="商家" style="rounded=0;whiteSpace=wrap;html=1;" vertex="1" parent="1">
          <mxGeometry x="646" y="350" width="60" height="20" as="geometry" />
        </mxCell>
        <mxCell id="dUpmVTzHK90mjqvTU03A-14" value="商品" style="rounded=0;whiteSpace=wrap;html=1;" vertex="1" parent="1">
          <mxGeometry x="460" y="560" width="60" height="20" as="geometry" />
        </mxCell>
        <mxCell id="dUpmVTzHK90mjqvTU03A-16" value="订单" style="rounded=0;whiteSpace=wrap;html=1;" vertex="1" parent="1">
          <mxGeometry x="110" y="440" width="60" height="20" as="geometry" />
        </mxCell>
        <mxCell id="dUpmVTzHK90mjqvTU03A-17" value="优惠券" style="rounded=0;whiteSpace=wrap;html=1;" vertex="1" parent="1">
          <mxGeometry x="390" y="280" width="60" height="20" as="geometry" />
        </mxCell>
        <mxCell id="dUpmVTzHK90mjqvTU03A-19" value="id" style="ellipse;whiteSpace=wrap;html=1;fillColor=#f8cecc;strokeColor=#b85450;" vertex="1" parent="1">
          <mxGeometry x="90" y="200" width="60" height="20" as="geometry" />
        </mxCell>
        <mxCell id="dUpmVTzHK90mjqvTU03A-21" value="收货地址" style="rounded=0;whiteSpace=wrap;html=1;" vertex="1" parent="1">
          <mxGeometry x="280" y="140" width="60" height="20" as="geometry" />
        </mxCell>
        <mxCell id="dUpmVTzHK90mjqvTU03A-24" value="" style="endArrow=none;html=1;rounded=0;entryX=0.5;entryY=0;entryDx=0;entryDy=0;exitX=0.5;exitY=1;exitDx=0;exitDy=0;" edge="1" parent="1" source="dUpmVTzHK90mjqvTU03A-19" target="dUpmVTzHK90mjqvTU03A-8">
          <mxGeometry width="50" height="50" relative="1" as="geometry">
            <mxPoint x="160" y="340" as="sourcePoint" />
            <mxPoint x="210" y="290" as="targetPoint" />
          </mxGeometry>
        </mxCell>
        <mxCell id="dUpmVTzHK90mjqvTU03A-26" value="昵称&lt;span style=&quot;color: rgba(0, 0, 0, 0); font-family: monospace; font-size: 0px; text-align: start;&quot;&gt;%3CmxGraphModel%3E%3Croot%3E%3CmxCell%20id%3D%220%22%2F%3E%3CmxCell%20id%3D%221%22%20parent%3D%220%22%2F%3E%3CmxCell%20id%3D%222%22%20value%3D%22id%22%20style%3D%22ellipse%3BwhiteSpace%3Dwrap%3Bhtml%3D1%3B%22%20vertex%3D%221%22%20parent%3D%221%22%3E%3CmxGeometry%20x%3D%2290%22%20y%3D%22140%22%20width%3D%2260%22%20height%3D%2220%22%20as%3D%22geometry%22%2F%3E%3C%2FmxCell%3E%3C%2Froot%3E%3C%2FmxGraphModel%3E&lt;/span&gt;" style="ellipse;whiteSpace=wrap;html=1;" vertex="1" parent="1">
          <mxGeometry x="20" y="210" width="60" height="20" as="geometry" />
        </mxCell>
        <mxCell id="dUpmVTzHK90mjqvTU03A-27" value="头像" style="ellipse;whiteSpace=wrap;html=1;" vertex="1" parent="1">
          <mxGeometry x="10" y="260" width="60" height="20" as="geometry" />
        </mxCell>
        <mxCell id="dUpmVTzHK90mjqvTU03A-28" value="出生日期" style="ellipse;whiteSpace=wrap;html=1;" vertex="1" parent="1">
          <mxGeometry x="70" y="310" width="60" height="20" as="geometry" />
        </mxCell>
        <mxCell id="dUpmVTzHK90mjqvTU03A-29" value="" style="endArrow=none;html=1;rounded=0;exitX=0.5;exitY=1;exitDx=0;exitDy=0;entryX=0.5;entryY=0;entryDx=0;entryDy=0;" edge="1" parent="1" source="dUpmVTzHK90mjqvTU03A-8" target="dUpmVTzHK90mjqvTU03A-28">
          <mxGeometry width="50" height="50" relative="1" as="geometry">
            <mxPoint x="160" y="340" as="sourcePoint" />
            <mxPoint x="210" y="290" as="targetPoint" />
          </mxGeometry>
        </mxCell>
        <mxCell id="dUpmVTzHK90mjqvTU03A-30" value="" style="endArrow=none;html=1;rounded=0;exitX=0;exitY=0.75;exitDx=0;exitDy=0;entryX=1;entryY=0.5;entryDx=0;entryDy=0;" edge="1" parent="1" source="dUpmVTzHK90mjqvTU03A-8" target="dUpmVTzHK90mjqvTU03A-27">
          <mxGeometry width="50" height="50" relative="1" as="geometry">
            <mxPoint x="129.9999999999999" y="280" as="sourcePoint" />
            <mxPoint x="109.99999999999989" y="320" as="targetPoint" />
          </mxGeometry>
        </mxCell>
        <mxCell id="dUpmVTzHK90mjqvTU03A-31" value="" style="endArrow=none;html=1;rounded=0;exitX=0.25;exitY=0;exitDx=0;exitDy=0;entryX=0.5;entryY=1;entryDx=0;entryDy=0;" edge="1" parent="1" source="dUpmVTzHK90mjqvTU03A-8" target="dUpmVTzHK90mjqvTU03A-26">
          <mxGeometry width="50" height="50" relative="1" as="geometry">
            <mxPoint x="139.9999999999999" y="290" as="sourcePoint" />
            <mxPoint x="119.99999999999989" y="330" as="targetPoint" />
          </mxGeometry>
        </mxCell>
        <mxCell id="dUpmVTzHK90mjqvTU03A-32" value="姓名" style="ellipse;whiteSpace=wrap;html=1;" vertex="1" parent="1">
          <mxGeometry x="300" y="60" width="60" height="20" as="geometry" />
        </mxCell>
        <mxCell id="dUpmVTzHK90mjqvTU03A-33" value="性别" style="ellipse;whiteSpace=wrap;html=1;" vertex="1" parent="1">
          <mxGeometry x="220" y="60" width="60" height="20" as="geometry" />
        </mxCell>
        <mxCell id="dUpmVTzHK90mjqvTU03A-34" value="电话" style="ellipse;whiteSpace=wrap;html=1;" vertex="1" parent="1">
          <mxGeometry x="160" y="80" width="60" height="20" as="geometry" />
        </mxCell>
        <mxCell id="dUpmVTzHK90mjqvTU03A-37" value="配送地址" style="ellipse;whiteSpace=wrap;html=1;" vertex="1" parent="1">
          <mxGeometry x="370" y="80" width="60" height="20" as="geometry" />
        </mxCell>
        <mxCell id="dUpmVTzHK90mjqvTU03A-39" value="id" style="ellipse;whiteSpace=wrap;html=1;fillColor=#f8cecc;strokeColor=#b85450;" vertex="1" parent="1">
          <mxGeometry x="80" y="595" width="60" height="20" as="geometry" />
        </mxCell>
        <mxCell id="dUpmVTzHK90mjqvTU03A-40" value="出生日期&lt;span style=&quot;color: rgba(0, 0, 0, 0); font-family: monospace; font-size: 0px; text-align: start;&quot;&gt;%3CmxGraphModel%3E%3Croot%3E%3CmxCell%20id%3D%220%22%2F%3E%3CmxCell%20id%3D%221%22%20parent%3D%220%22%2F%3E%3CmxCell%20id%3D%222%22%20value%3D%22id%22%20style%3D%22ellipse%3BwhiteSpace%3Dwrap%3Bhtml%3D1%3B%22%20vertex%3D%221%22%20parent%3D%221%22%3E%3CmxGeometry%20x%3D%2290%22%20y%3D%22200%22%20width%3D%2260%22%20height%3D%2220%22%20as%3D%22geometry%22%2F%3E%3C%2FmxCell%3E%3C%2Froot%3E%3C%2FmxGraphModel%3E&lt;/span&gt;" style="ellipse;whiteSpace=wrap;html=1;" vertex="1" parent="1">
          <mxGeometry x="140" y="635" width="60" height="20" as="geometry" />
        </mxCell>
        <mxCell id="dUpmVTzHK90mjqvTU03A-41" value="联系电话&lt;span style=&quot;color: rgba(0, 0, 0, 0); font-family: monospace; font-size: 0px; text-align: start;&quot;&gt;%3CmxGraphModel%3E%3Croot%3E%3CmxCell%20id%3D%220%22%2F%3E%3CmxCell%20id%3D%221%22%20parent%3D%220%22%2F%3E%3CmxCell%20id%3D%222%22%20value%3D%22id%22%20style%3D%22ellipse%3BwhiteSpace%3Dwrap%3Bhtml%3D1%3B%22%20vertex%3D%221%22%20parent%3D%221%22%3E%3CmxGeometry%20x%3D%2290%22%20y%3D%22200%22%20width%3D%2260%22%20height%3D%2220%22%20as%3D%22geometry%22%2F%3E%3C%2FmxCell%3E%3C%2Froot%3E%3C%2FmxGraphModel%3E&lt;/span&gt;&lt;span style=&quot;color: rgba(0, 0, 0, 0); font-family: monospace; font-size: 0px; text-align: start;&quot;&gt;%3CmxGraphModel%3E%3Croot%3E%3CmxCell%20id%3D%220%22%2F%3E%3CmxCell%20id%3D%221%22%20parent%3D%220%22%2F%3E%3CmxCell%20id%3D%222%22%20value%3D%22id%22%20style%3D%22ellipse%3BwhiteSpace%3Dwrap%3Bhtml%3D1%3B%22%20vertex%3D%221%22%20parent%3D%221%22%3E%3CmxGeometry%20x%3D%2290%22%20y%3D%22200%22%20width%3D%2260%22%20height%3D%2220%22%20as%3D%22geometry%22%2F%3E%3C%2FmxCell%3E%3C%2Froot%3E%3C%2FmxGraphModel%3E&lt;/span&gt;" style="ellipse;whiteSpace=wrap;html=1;" vertex="1" parent="1">
          <mxGeometry x="310" y="635" width="60" height="20" as="geometry" />
        </mxCell>
        <mxCell id="dUpmVTzHK90mjqvTU03A-42" value="基础工资" style="ellipse;whiteSpace=wrap;html=1;" vertex="1" parent="1">
          <mxGeometry x="230" y="645" width="60" height="20" as="geometry" />
        </mxCell>
        <mxCell id="dUpmVTzHK90mjqvTU03A-43" value="id" style="ellipse;whiteSpace=wrap;html=1;fillColor=#f8cecc;strokeColor=#b85450;" vertex="1" parent="1">
          <mxGeometry x="756" y="330" width="60" height="20" as="geometry" />
        </mxCell>
        <mxCell id="dUpmVTzHK90mjqvTU03A-44" value="商店名" style="ellipse;whiteSpace=wrap;html=1;" vertex="1" parent="1">
          <mxGeometry x="746" y="390" width="60" height="20" as="geometry" />
        </mxCell>
        <mxCell id="dUpmVTzHK90mjqvTU03A-45" value="联系电话" style="ellipse;whiteSpace=wrap;html=1;" vertex="1" parent="1">
          <mxGeometry x="706" y="430" width="60" height="20" as="geometry" />
        </mxCell>
        <mxCell id="dUpmVTzHK90mjqvTU03A-46" value="" style="endArrow=none;html=1;rounded=0;exitX=0;exitY=0;exitDx=0;exitDy=0;entryX=1;entryY=0.5;entryDx=0;entryDy=0;" edge="1" parent="1" source="dUpmVTzHK90mjqvTU03A-21" target="dUpmVTzHK90mjqvTU03A-34">
          <mxGeometry width="50" height="50" relative="1" as="geometry">
            <mxPoint x="440" y="280" as="sourcePoint" />
            <mxPoint x="490" y="230" as="targetPoint" />
          </mxGeometry>
        </mxCell>
        <mxCell id="dUpmVTzHK90mjqvTU03A-48" value="" style="endArrow=none;html=1;rounded=0;entryX=0.5;entryY=1;entryDx=0;entryDy=0;exitX=0.25;exitY=0;exitDx=0;exitDy=0;" edge="1" parent="1" source="dUpmVTzHK90mjqvTU03A-21" target="dUpmVTzHK90mjqvTU03A-33">
          <mxGeometry width="50" height="50" relative="1" as="geometry">
            <mxPoint x="440" y="280" as="sourcePoint" />
            <mxPoint x="490" y="230" as="targetPoint" />
          </mxGeometry>
        </mxCell>
        <mxCell id="dUpmVTzHK90mjqvTU03A-49" value="" style="endArrow=none;html=1;rounded=0;entryX=0.5;entryY=1;entryDx=0;entryDy=0;exitX=0.75;exitY=0;exitDx=0;exitDy=0;" edge="1" parent="1" source="dUpmVTzHK90mjqvTU03A-21" target="dUpmVTzHK90mjqvTU03A-32">
          <mxGeometry width="50" height="50" relative="1" as="geometry">
            <mxPoint x="310" y="140" as="sourcePoint" />
            <mxPoint x="250" y="110" as="targetPoint" />
          </mxGeometry>
        </mxCell>
        <mxCell id="dUpmVTzHK90mjqvTU03A-51" value="" style="endArrow=none;html=1;rounded=0;entryX=0.5;entryY=1;entryDx=0;entryDy=0;exitX=1;exitY=0;exitDx=0;exitDy=0;" edge="1" parent="1" source="dUpmVTzHK90mjqvTU03A-21" target="dUpmVTzHK90mjqvTU03A-37">
          <mxGeometry width="50" height="50" relative="1" as="geometry">
            <mxPoint x="315" y="160" as="sourcePoint" />
            <mxPoint x="260" y="120" as="targetPoint" />
          </mxGeometry>
        </mxCell>
        <mxCell id="dUpmVTzHK90mjqvTU03A-52" value="" style="endArrow=none;html=1;rounded=0;entryX=1;entryY=0.5;entryDx=0;entryDy=0;exitX=0;exitY=0.75;exitDx=0;exitDy=0;entryPerimeter=0;" edge="1" parent="1" source="dUpmVTzHK90mjqvTU03A-9" target="dUpmVTzHK90mjqvTU03A-39">
          <mxGeometry width="50" height="50" relative="1" as="geometry">
            <mxPoint x="90" y="790" as="sourcePoint" />
            <mxPoint x="140" y="740" as="targetPoint" />
          </mxGeometry>
        </mxCell>
        <mxCell id="dUpmVTzHK90mjqvTU03A-53" value="" style="endArrow=none;html=1;rounded=0;exitX=0.5;exitY=1;exitDx=0;exitDy=0;entryX=0.5;entryY=0;entryDx=0;entryDy=0;" edge="1" parent="1" source="dUpmVTzHK90mjqvTU03A-9" target="dUpmVTzHK90mjqvTU03A-40">
          <mxGeometry width="50" height="50" relative="1" as="geometry">
            <mxPoint x="230" y="570" as="sourcePoint" />
            <mxPoint x="200" y="640" as="targetPoint" />
          </mxGeometry>
        </mxCell>
        <mxCell id="dUpmVTzHK90mjqvTU03A-54" value="" style="endArrow=none;html=1;rounded=0;entryX=0;entryY=0.5;entryDx=0;entryDy=0;exitX=1;exitY=0.5;exitDx=0;exitDy=0;" edge="1" parent="1" source="dUpmVTzHK90mjqvTU03A-9" target="dUpmVTzHK90mjqvTU03A-41">
          <mxGeometry width="50" height="50" relative="1" as="geometry">
            <mxPoint x="240" y="580" as="sourcePoint" />
            <mxPoint x="260" y="530" as="targetPoint" />
          </mxGeometry>
        </mxCell>
        <mxCell id="dUpmVTzHK90mjqvTU03A-55" value="" style="endArrow=none;html=1;rounded=0;entryX=0.5;entryY=0;entryDx=0;entryDy=0;exitX=0.75;exitY=1;exitDx=0;exitDy=0;" edge="1" parent="1" source="dUpmVTzHK90mjqvTU03A-9" target="dUpmVTzHK90mjqvTU03A-42">
          <mxGeometry width="50" height="50" relative="1" as="geometry">
            <mxPoint x="250" y="590" as="sourcePoint" />
            <mxPoint x="270" y="540" as="targetPoint" />
          </mxGeometry>
        </mxCell>
        <mxCell id="dUpmVTzHK90mjqvTU03A-56" value="" style="endArrow=none;html=1;rounded=0;entryX=1;entryY=0;entryDx=0;entryDy=0;exitX=0;exitY=0.5;exitDx=0;exitDy=0;" edge="1" parent="1" source="dUpmVTzHK90mjqvTU03A-43" target="dUpmVTzHK90mjqvTU03A-13">
          <mxGeometry width="50" height="50" relative="1" as="geometry">
            <mxPoint x="736" y="180" as="sourcePoint" />
            <mxPoint x="756" y="130" as="targetPoint" />
          </mxGeometry>
        </mxCell>
        <mxCell id="dUpmVTzHK90mjqvTU03A-57" value="" style="endArrow=none;html=1;rounded=0;entryX=1;entryY=1;entryDx=0;entryDy=0;exitX=0;exitY=0.5;exitDx=0;exitDy=0;" edge="1" parent="1" source="dUpmVTzHK90mjqvTU03A-44" target="dUpmVTzHK90mjqvTU03A-13">
          <mxGeometry width="50" height="50" relative="1" as="geometry">
            <mxPoint x="746" y="190" as="sourcePoint" />
            <mxPoint x="766" y="140" as="targetPoint" />
          </mxGeometry>
        </mxCell>
        <mxCell id="dUpmVTzHK90mjqvTU03A-58" value="" style="endArrow=none;html=1;rounded=0;entryX=0.408;entryY=0.093;entryDx=0;entryDy=0;exitX=0.5;exitY=1;exitDx=0;exitDy=0;entryPerimeter=0;" edge="1" parent="1" source="dUpmVTzHK90mjqvTU03A-13" target="dUpmVTzHK90mjqvTU03A-45">
          <mxGeometry width="50" height="50" relative="1" as="geometry">
            <mxPoint x="756" y="200" as="sourcePoint" />
            <mxPoint x="776" y="150" as="targetPoint" />
          </mxGeometry>
        </mxCell>
        <mxCell id="dUpmVTzHK90mjqvTU03A-60" value="商店位置" style="ellipse;whiteSpace=wrap;html=1;" vertex="1" parent="1">
          <mxGeometry x="696" y="280" width="60" height="20" as="geometry" />
        </mxCell>
        <mxCell id="dUpmVTzHK90mjqvTU03A-61" value="" style="endArrow=none;html=1;rounded=0;entryX=0.5;entryY=0;entryDx=0;entryDy=0;exitX=0.5;exitY=1;exitDx=0;exitDy=0;" edge="1" parent="1" source="dUpmVTzHK90mjqvTU03A-60" target="dUpmVTzHK90mjqvTU03A-13">
          <mxGeometry width="50" height="50" relative="1" as="geometry">
            <mxPoint x="766" y="350" as="sourcePoint" />
            <mxPoint x="716" y="360" as="targetPoint" />
          </mxGeometry>
        </mxCell>
        <mxCell id="dUpmVTzHK90mjqvTU03A-62" value="名称&lt;span style=&quot;color: rgba(0, 0, 0, 0); font-family: monospace; font-size: 0px; text-align: start;&quot;&gt;%3CmxGraphModel%3E%3Croot%3E%3CmxCell%20id%3D%220%22%2F%3E%3CmxCell%20id%3D%221%22%20parent%3D%220%22%2F%3E%3CmxCell%20id%3D%222%22%20value%3D%22%E8%81%94%E7%B3%BB%E7%94%B5%E8%AF%9D%22%20style%3D%22ellipse%3BwhiteSpace%3Dwrap%3Bhtml%3D1%3B%22%20vertex%3D%221%22%20parent%3D%221%22%3E%3CmxGeometry%20x%3D%22580%22%20y%3D%22420%22%20width%3D%2260%22%20height%3D%2220%22%20as%3D%22geometry%22%2F%3E%3C%2FmxCell%3E%3C%2Froot%3E%3C%2FmxGraphModel%3E&lt;/span&gt;" style="ellipse;whiteSpace=wrap;html=1;" vertex="1" parent="1">
          <mxGeometry x="546" y="615" width="60" height="20" as="geometry" />
        </mxCell>
        <mxCell id="dUpmVTzHK90mjqvTU03A-63" value="id&lt;span style=&quot;color: rgba(0, 0, 0, 0); font-family: monospace; font-size: 0px; text-align: start;&quot;&gt;%3CmxGraphModel%3E%3Croot%3E%3CmxCell%20id%3D%220%22%2F%3E%3CmxCell%20id%3D%221%22%20parent%3D%220%22%2F%3E%3CmxCell%20id%3D%222%22%20value%3D%22%E5%90%8D%E7%A7%B0%26lt%3Bspan%20style%3D%26quot%3Bcolor%3A%20rgba(0%2C%200%2C%200%2C%200)%3B%20font-family%3A%20monospace%3B%20font-size%3A%200px%3B%20text-align%3A%20start%3B%26quot%3B%26gt%3B%253CmxGraphModel%253E%253Croot%253E%253CmxCell%2520id%253D%25220%2522%252F%253E%253CmxCell%2520id%253D%25221%2522%2520parent%253D%25220%2522%252F%253E%253CmxCell%2520id%253D%25222%2522%2520value%253D%2522%25E8%2581%2594%25E7%25B3%25BB%25E7%2594%25B5%25E8%25AF%259D%2522%2520style%253D%2522ellipse%253BwhiteSpace%253Dwrap%253Bhtml%253D1%253B%2522%2520vertex%253D%25221%2522%2520parent%253D%25221%2522%253E%253CmxGeometry%2520x%253D%2522580%2522%2520y%253D%2522420%2522%2520width%253D%252260%2522%2520height%253D%252220%2522%2520as%253D%2522geometry%2522%252F%253E%253C%252FmxCell%253E%253C%252Froot%253E%253C%252FmxGraphModel%253E%26lt%3B%2Fspan%26gt%3B%22%20style%3D%22ellipse%3BwhiteSpace%3Dwrap%3Bhtml%3D1%3B%22%20vertex%3D%221%22%20parent%3D%221%22%3E%3CmxGeometry%20x%3D%22510%22%20y%3D%22575%22%20width%3D%2260%22%20height%3D%2220%22%20as%3D%22geometry%22%2F%3E%3C%2FmxCell%3E%3C%2Froot%3E%3C%2FmxGraphModel%3E&lt;/span&gt;" style="ellipse;whiteSpace=wrap;html=1;fillColor=#f8cecc;strokeColor=#b85450;" vertex="1" parent="1">
          <mxGeometry x="616" y="560" width="60" height="20" as="geometry" />
        </mxCell>
        <mxCell id="dUpmVTzHK90mjqvTU03A-64" value="图片" style="ellipse;whiteSpace=wrap;html=1;" vertex="1" parent="1">
          <mxGeometry x="476" y="625" width="60" height="20" as="geometry" />
        </mxCell>
        <mxCell id="dUpmVTzHK90mjqvTU03A-65" value="描述" style="ellipse;whiteSpace=wrap;html=1;" vertex="1" parent="1">
          <mxGeometry x="616" y="530" width="60" height="20" as="geometry" />
        </mxCell>
        <mxCell id="dUpmVTzHK90mjqvTU03A-66" value="价格" style="ellipse;whiteSpace=wrap;html=1;" vertex="1" parent="1">
          <mxGeometry x="586" y="590" width="60" height="20" as="geometry" />
        </mxCell>
        <mxCell id="dUpmVTzHK90mjqvTU03A-67" value="是否卖光" style="ellipse;whiteSpace=wrap;html=1;" vertex="1" parent="1">
          <mxGeometry x="400" y="625" width="60" height="20" as="geometry" />
        </mxCell>
        <mxCell id="dUpmVTzHK90mjqvTU03A-68" value="id" style="ellipse;whiteSpace=wrap;html=1;fillColor=#f8cecc;strokeColor=#b85450;" vertex="1" parent="1">
          <mxGeometry x="330" y="180" width="60" height="20" as="geometry" />
        </mxCell>
        <mxCell id="dUpmVTzHK90mjqvTU03A-69" value="有效期" style="ellipse;whiteSpace=wrap;html=1;" vertex="1" parent="1">
          <mxGeometry x="410" y="180" width="60" height="20" as="geometry" />
        </mxCell>
        <mxCell id="dUpmVTzHK90mjqvTU03A-70" value="优惠金额&lt;span style=&quot;color: rgba(0, 0, 0, 0); font-family: monospace; font-size: 0px; text-align: start;&quot;&gt;%3CmxGraphModel%3E%3Croot%3E%3CmxCell%20id%3D%220%22%2F%3E%3CmxCell%20id%3D%221%22%20parent%3D%220%22%2F%3E%3CmxCell%20id%3D%222%22%20value%3D%22%E5%90%8D%E7%A7%B0%26lt%3Bspan%20style%3D%26quot%3Bcolor%3A%20rgba(0%2C%200%2C%200%2C%200)%3B%20font-family%3A%20monospace%3B%20font-size%3A%200px%3B%20text-align%3A%20start%3B%26quot%3B%26gt%3B%253CmxGraphModel%253E%253Croot%253E%253CmxCell%2520id%253D%25220%2522%252F%253E%253CmxCell%2520id%253D%25221%2522%2520parent%253D%25220%2522%252F%253E%253CmxCell%2520id%253D%25222%2522%2520value%253D%2522%25E8%2581%2594%25E7%25B3%25BB%25E7%2594%25B5%25E8%25AF%259D%2522%2520style%253D%2522ellipse%253BwhiteSpace%253Dwrap%253Bhtml%253D1%253B%2522%2520vertex%253D%25221%2522%2520parent%253D%25221%2522%253E%253CmxGeometry%2520x%253D%2522580%2522%2520y%253D%2522420%2522%2520width%253D%252260%2522%2520height%253D%252220%2522%2520as%253D%2522geometry%2522%252F%253E%253C%252FmxCell%253E%253C%252Froot%253E%253C%252FmxGraphModel%253E%26lt%3B%2Fspan%26gt%3B%22%20style%3D%22ellipse%3BwhiteSpace%3Dwrap%3Bhtml%3D1%3B%22%20vertex%3D%221%22%20parent%3D%221%22%3E%3CmxGeometry%20x%3D%22510%22%20y%3D%22575%22%20width%3D%2260%22%20height%3D%2220%22%20as%3D%22geometry%22%2F%3E%3C%2FmxCell%3E%3C%2Froot%3E%3C%2FmxGraphModel%3E&lt;/span&gt;" style="ellipse;whiteSpace=wrap;html=1;" vertex="1" parent="1">
          <mxGeometry x="476" y="190" width="60" height="20" as="geometry" />
        </mxCell>
        <mxCell id="dUpmVTzHK90mjqvTU03A-71" value="满减金额" style="ellipse;whiteSpace=wrap;html=1;" vertex="1" parent="1">
          <mxGeometry x="555" y="200" width="60" height="20" as="geometry" />
        </mxCell>
        <mxCell id="dUpmVTzHK90mjqvTU03A-74" value="" style="endArrow=none;html=1;rounded=0;exitX=0;exitY=1;exitDx=0;exitDy=0;entryX=0.5;entryY=0;entryDx=0;entryDy=0;" edge="1" parent="1" source="dUpmVTzHK90mjqvTU03A-14" target="dUpmVTzHK90mjqvTU03A-67">
          <mxGeometry width="50" height="50" relative="1" as="geometry">
            <mxPoint x="350" y="515" as="sourcePoint" />
            <mxPoint x="400" y="465" as="targetPoint" />
          </mxGeometry>
        </mxCell>
        <mxCell id="dUpmVTzHK90mjqvTU03A-75" value="" style="endArrow=none;html=1;rounded=0;exitX=0.5;exitY=1;exitDx=0;exitDy=0;entryX=0.409;entryY=0.037;entryDx=0;entryDy=0;entryPerimeter=0;" edge="1" parent="1" source="dUpmVTzHK90mjqvTU03A-14" target="dUpmVTzHK90mjqvTU03A-64">
          <mxGeometry width="50" height="50" relative="1" as="geometry">
            <mxPoint x="470" y="590" as="sourcePoint" />
            <mxPoint x="440" y="635" as="targetPoint" />
          </mxGeometry>
        </mxCell>
        <mxCell id="dUpmVTzHK90mjqvTU03A-76" value="" style="endArrow=none;html=1;rounded=0;exitX=1;exitY=1;exitDx=0;exitDy=0;entryX=0.5;entryY=0;entryDx=0;entryDy=0;" edge="1" parent="1" source="dUpmVTzHK90mjqvTU03A-14" target="dUpmVTzHK90mjqvTU03A-62">
          <mxGeometry width="50" height="50" relative="1" as="geometry">
            <mxPoint x="480" y="600" as="sourcePoint" />
            <mxPoint x="450" y="645" as="targetPoint" />
          </mxGeometry>
        </mxCell>
        <mxCell id="dUpmVTzHK90mjqvTU03A-77" value="" style="endArrow=none;html=1;rounded=0;entryX=0;entryY=0.5;entryDx=0;entryDy=0;exitX=1;exitY=0.75;exitDx=0;exitDy=0;" edge="1" parent="1" source="dUpmVTzHK90mjqvTU03A-14" target="dUpmVTzHK90mjqvTU03A-66">
          <mxGeometry width="50" height="50" relative="1" as="geometry">
            <mxPoint x="530" y="585" as="sourcePoint" />
            <mxPoint x="460" y="655" as="targetPoint" />
          </mxGeometry>
        </mxCell>
        <mxCell id="dUpmVTzHK90mjqvTU03A-78" value="" style="endArrow=none;html=1;rounded=0;exitX=1;exitY=0.5;exitDx=0;exitDy=0;entryX=0;entryY=0.5;entryDx=0;entryDy=0;" edge="1" parent="1" source="dUpmVTzHK90mjqvTU03A-14" target="dUpmVTzHK90mjqvTU03A-63">
          <mxGeometry width="50" height="50" relative="1" as="geometry">
            <mxPoint x="500" y="620" as="sourcePoint" />
            <mxPoint x="470" y="665" as="targetPoint" />
          </mxGeometry>
        </mxCell>
        <mxCell id="dUpmVTzHK90mjqvTU03A-79" value="" style="endArrow=none;html=1;rounded=0;exitX=1;exitY=0;exitDx=0;exitDy=0;entryX=0;entryY=0.5;entryDx=0;entryDy=0;" edge="1" parent="1" source="dUpmVTzHK90mjqvTU03A-14" target="dUpmVTzHK90mjqvTU03A-65">
          <mxGeometry width="50" height="50" relative="1" as="geometry">
            <mxPoint x="510" y="630" as="sourcePoint" />
            <mxPoint x="480" y="675" as="targetPoint" />
          </mxGeometry>
        </mxCell>
        <mxCell id="dUpmVTzHK90mjqvTU03A-80" value="" style="endArrow=none;html=1;rounded=0;exitX=0;exitY=0;exitDx=0;exitDy=0;entryX=0.5;entryY=1;entryDx=0;entryDy=0;" edge="1" parent="1" source="dUpmVTzHK90mjqvTU03A-17" target="dUpmVTzHK90mjqvTU03A-68">
          <mxGeometry width="50" height="50" relative="1" as="geometry">
            <mxPoint x="805" y="345" as="sourcePoint" />
            <mxPoint x="775" y="390" as="targetPoint" />
          </mxGeometry>
        </mxCell>
        <mxCell id="dUpmVTzHK90mjqvTU03A-81" value="" style="endArrow=none;html=1;rounded=0;entryX=0.5;entryY=1;entryDx=0;entryDy=0;" edge="1" parent="1" source="dUpmVTzHK90mjqvTU03A-17" target="dUpmVTzHK90mjqvTU03A-69">
          <mxGeometry width="50" height="50" relative="1" as="geometry">
            <mxPoint x="380" y="280" as="sourcePoint" />
            <mxPoint x="345.00000000000273" y="322.5" as="targetPoint" />
          </mxGeometry>
        </mxCell>
        <mxCell id="dUpmVTzHK90mjqvTU03A-82" value="" style="endArrow=none;html=1;rounded=0;exitX=0.75;exitY=0;exitDx=0;exitDy=0;" edge="1" parent="1" source="dUpmVTzHK90mjqvTU03A-17" target="dUpmVTzHK90mjqvTU03A-70">
          <mxGeometry width="50" height="50" relative="1" as="geometry">
            <mxPoint x="375" y="322.5" as="sourcePoint" />
            <mxPoint x="355.00000000000273" y="332.5" as="targetPoint" />
          </mxGeometry>
        </mxCell>
        <mxCell id="dUpmVTzHK90mjqvTU03A-83" value="" style="endArrow=none;html=1;rounded=0;exitX=1;exitY=0;exitDx=0;exitDy=0;entryX=0.5;entryY=1;entryDx=0;entryDy=0;" edge="1" parent="1" source="dUpmVTzHK90mjqvTU03A-17" target="dUpmVTzHK90mjqvTU03A-71">
          <mxGeometry width="50" height="50" relative="1" as="geometry">
            <mxPoint x="385" y="332.5" as="sourcePoint" />
            <mxPoint x="365.00000000000273" y="342.5" as="targetPoint" />
          </mxGeometry>
        </mxCell>
        <mxCell id="dUpmVTzHK90mjqvTU03A-85" value="id" style="ellipse;whiteSpace=wrap;html=1;fillColor=#f8cecc;strokeColor=#b85450;" vertex="1" parent="1">
          <mxGeometry x="20" y="380" width="60" height="20" as="geometry" />
        </mxCell>
        <mxCell id="dUpmVTzHK90mjqvTU03A-86" value="日期" style="ellipse;whiteSpace=wrap;html=1;" vertex="1" parent="1">
          <mxGeometry x="10" y="430" width="60" height="20" as="geometry" />
        </mxCell>
        <mxCell id="dUpmVTzHK90mjqvTU03A-87" value="总金额" style="ellipse;whiteSpace=wrap;html=1;" vertex="1" parent="1">
          <mxGeometry x="20" y="490" width="60" height="20" as="geometry" />
        </mxCell>
        <mxCell id="dUpmVTzHK90mjqvTU03A-90" value="" style="endArrow=none;html=1;rounded=0;entryX=0.675;entryY=1.085;entryDx=0;entryDy=0;entryPerimeter=0;exitX=0;exitY=0;exitDx=0;exitDy=0;" edge="1" parent="1" source="dUpmVTzHK90mjqvTU03A-16" target="dUpmVTzHK90mjqvTU03A-85">
          <mxGeometry width="50" height="50" relative="1" as="geometry">
            <mxPoint x="440" y="540" as="sourcePoint" />
            <mxPoint x="490" y="490" as="targetPoint" />
          </mxGeometry>
        </mxCell>
        <mxCell id="dUpmVTzHK90mjqvTU03A-92" value="" style="endArrow=none;html=1;rounded=0;entryX=1;entryY=0.5;entryDx=0;entryDy=0;exitX=0;exitY=0.5;exitDx=0;exitDy=0;" edge="1" parent="1" source="dUpmVTzHK90mjqvTU03A-16" target="dUpmVTzHK90mjqvTU03A-86">
          <mxGeometry width="50" height="50" relative="1" as="geometry">
            <mxPoint x="119.99999999999989" y="449.9999999999999" as="sourcePoint" />
            <mxPoint x="70.5" y="411.70000000000005" as="targetPoint" />
          </mxGeometry>
        </mxCell>
        <mxCell id="dUpmVTzHK90mjqvTU03A-93" value="" style="endArrow=none;html=1;rounded=0;entryX=1;entryY=0;entryDx=0;entryDy=0;exitX=0;exitY=1;exitDx=0;exitDy=0;" edge="1" parent="1" source="dUpmVTzHK90mjqvTU03A-16" target="dUpmVTzHK90mjqvTU03A-87">
          <mxGeometry width="50" height="50" relative="1" as="geometry">
            <mxPoint x="129.9999999999999" y="459.9999999999999" as="sourcePoint" />
            <mxPoint x="80.5" y="421.70000000000005" as="targetPoint" />
          </mxGeometry>
        </mxCell>
        <mxCell id="dUpmVTzHK90mjqvTU03A-100" style="edgeStyle=orthogonalEdgeStyle;rounded=0;orthogonalLoop=1;jettySize=auto;html=1;entryX=0.75;entryY=1;entryDx=0;entryDy=0;" edge="1" parent="1" source="dUpmVTzHK90mjqvTU03A-99" target="dUpmVTzHK90mjqvTU03A-8">
          <mxGeometry relative="1" as="geometry" />
        </mxCell>
        <mxCell id="dUpmVTzHK90mjqvTU03A-99" value="拥有" style="rhombus;whiteSpace=wrap;html=1;" vertex="1" parent="1">
          <mxGeometry x="120" y="360" width="70" height="30" as="geometry" />
        </mxCell>
        <mxCell id="dUpmVTzHK90mjqvTU03A-105" value="" style="endArrow=none;html=1;rounded=0;entryX=0.5;entryY=1;entryDx=0;entryDy=0;exitX=0.75;exitY=0;exitDx=0;exitDy=0;" edge="1" parent="1" source="dUpmVTzHK90mjqvTU03A-16" target="dUpmVTzHK90mjqvTU03A-99">
          <mxGeometry width="50" height="50" relative="1" as="geometry">
            <mxPoint x="195" y="415" as="sourcePoint" />
            <mxPoint x="245" y="365" as="targetPoint" />
          </mxGeometry>
        </mxCell>
        <mxCell id="dUpmVTzHK90mjqvTU03A-110" value="拥有" style="rhombus;whiteSpace=wrap;html=1;" vertex="1" parent="1">
          <mxGeometry x="210" y="190" width="70" height="30" as="geometry" />
        </mxCell>
        <mxCell id="dUpmVTzHK90mjqvTU03A-111" value="" style="endArrow=classic;html=1;rounded=0;entryX=1;entryY=0;entryDx=0;entryDy=0;exitX=0;exitY=1;exitDx=0;exitDy=0;" edge="1" parent="1" source="dUpmVTzHK90mjqvTU03A-110" target="dUpmVTzHK90mjqvTU03A-8">
          <mxGeometry width="50" height="50" relative="1" as="geometry">
            <mxPoint x="470" y="250" as="sourcePoint" />
            <mxPoint x="520" y="200" as="targetPoint" />
          </mxGeometry>
        </mxCell>
        <mxCell id="dUpmVTzHK90mjqvTU03A-112" value="" style="endArrow=none;html=1;rounded=0;entryX=0.5;entryY=1;entryDx=0;entryDy=0;exitX=1;exitY=0;exitDx=0;exitDy=0;" edge="1" parent="1" source="dUpmVTzHK90mjqvTU03A-110" target="dUpmVTzHK90mjqvTU03A-21">
          <mxGeometry width="50" height="50" relative="1" as="geometry">
            <mxPoint x="470" y="250" as="sourcePoint" />
            <mxPoint x="520" y="200" as="targetPoint" />
          </mxGeometry>
        </mxCell>
        <mxCell id="dUpmVTzHK90mjqvTU03A-117" value="配送" style="rhombus;whiteSpace=wrap;html=1;" vertex="1" parent="1">
          <mxGeometry x="135" y="510" width="70" height="30" as="geometry" />
        </mxCell>
        <mxCell id="dUpmVTzHK90mjqvTU03A-118" value="" style="endArrow=classic;html=1;rounded=0;entryX=0.5;entryY=1;entryDx=0;entryDy=0;exitX=0.5;exitY=0;exitDx=0;exitDy=0;" edge="1" parent="1" source="dUpmVTzHK90mjqvTU03A-117" target="dUpmVTzHK90mjqvTU03A-16">
          <mxGeometry width="50" height="50" relative="1" as="geometry">
            <mxPoint x="550" y="470" as="sourcePoint" />
            <mxPoint x="600" y="420" as="targetPoint" />
          </mxGeometry>
        </mxCell>
        <mxCell id="dUpmVTzHK90mjqvTU03A-119" value="" style="endArrow=classic;html=1;rounded=0;exitX=0.5;exitY=1;exitDx=0;exitDy=0;entryX=0.5;entryY=0;entryDx=0;entryDy=0;" edge="1" parent="1" source="dUpmVTzHK90mjqvTU03A-117" target="dUpmVTzHK90mjqvTU03A-9">
          <mxGeometry width="50" height="50" relative="1" as="geometry">
            <mxPoint x="550" y="470" as="sourcePoint" />
            <mxPoint x="600" y="420" as="targetPoint" />
          </mxGeometry>
        </mxCell>
        <mxCell id="dUpmVTzHK90mjqvTU03A-120" value="包含" style="rhombus;whiteSpace=wrap;html=1;" vertex="1" parent="1">
          <mxGeometry x="290" y="510" width="70" height="30" as="geometry" />
        </mxCell>
        <mxCell id="dUpmVTzHK90mjqvTU03A-122" value="" style="endArrow=classic;html=1;rounded=0;entryX=1;entryY=0.75;entryDx=0;entryDy=0;" edge="1" parent="1" source="dUpmVTzHK90mjqvTU03A-120" target="dUpmVTzHK90mjqvTU03A-16">
          <mxGeometry width="50" height="50" relative="1" as="geometry">
            <mxPoint x="550" y="470" as="sourcePoint" />
            <mxPoint x="600" y="420" as="targetPoint" />
          </mxGeometry>
        </mxCell>
        <mxCell id="dUpmVTzHK90mjqvTU03A-123" value="" style="endArrow=none;html=1;rounded=0;exitX=1;exitY=1;exitDx=0;exitDy=0;entryX=0;entryY=0.25;entryDx=0;entryDy=0;" edge="1" parent="1" source="dUpmVTzHK90mjqvTU03A-120" target="dUpmVTzHK90mjqvTU03A-14">
          <mxGeometry width="50" height="50" relative="1" as="geometry">
            <mxPoint x="550" y="470" as="sourcePoint" />
            <mxPoint x="600" y="420" as="targetPoint" />
          </mxGeometry>
        </mxCell>
        <mxCell id="dUpmVTzHK90mjqvTU03A-124" value="拥有" style="rhombus;whiteSpace=wrap;html=1;" vertex="1" parent="1">
          <mxGeometry x="530" y="480" width="70" height="30" as="geometry" />
        </mxCell>
        <mxCell id="dUpmVTzHK90mjqvTU03A-125" value="" style="endArrow=classic;html=1;rounded=0;entryX=0.25;entryY=1;entryDx=0;entryDy=0;exitX=0.5;exitY=0;exitDx=0;exitDy=0;" edge="1" parent="1" source="dUpmVTzHK90mjqvTU03A-124" target="dUpmVTzHK90mjqvTU03A-13">
          <mxGeometry width="50" height="50" relative="1" as="geometry">
            <mxPoint x="550" y="370" as="sourcePoint" />
            <mxPoint x="600" y="320" as="targetPoint" />
          </mxGeometry>
        </mxCell>
        <mxCell id="dUpmVTzHK90mjqvTU03A-126" value="" style="endArrow=none;html=1;rounded=0;entryX=0.5;entryY=1;entryDx=0;entryDy=0;exitX=0.5;exitY=0;exitDx=0;exitDy=0;" edge="1" parent="1" source="dUpmVTzHK90mjqvTU03A-14" target="dUpmVTzHK90mjqvTU03A-124">
          <mxGeometry width="50" height="50" relative="1" as="geometry">
            <mxPoint x="550" y="370" as="sourcePoint" />
            <mxPoint x="600" y="320" as="targetPoint" />
          </mxGeometry>
        </mxCell>
        <mxCell id="dUpmVTzHK90mjqvTU03A-129" value="使用" style="rhombus;whiteSpace=wrap;html=1;" vertex="1" parent="1">
          <mxGeometry x="275" y="385" width="70" height="30" as="geometry" />
        </mxCell>
        <mxCell id="dUpmVTzHK90mjqvTU03A-131" value="" style="endArrow=none;html=1;rounded=0;entryX=0;entryY=1;entryDx=0;entryDy=0;exitX=1;exitY=0.25;exitDx=0;exitDy=0;" edge="1" parent="1" source="dUpmVTzHK90mjqvTU03A-16" target="dUpmVTzHK90mjqvTU03A-129">
          <mxGeometry width="50" height="50" relative="1" as="geometry">
            <mxPoint x="560" y="510" as="sourcePoint" />
            <mxPoint x="610" y="460" as="targetPoint" />
          </mxGeometry>
        </mxCell>
        <mxCell id="dUpmVTzHK90mjqvTU03A-132" value="" style="endArrow=classic;html=1;rounded=0;entryX=0.5;entryY=1;entryDx=0;entryDy=0;exitX=1;exitY=0.5;exitDx=0;exitDy=0;" edge="1" parent="1" source="dUpmVTzHK90mjqvTU03A-129" target="dUpmVTzHK90mjqvTU03A-17">
          <mxGeometry width="50" height="50" relative="1" as="geometry">
            <mxPoint x="310" y="360" as="sourcePoint" />
            <mxPoint x="610" y="460" as="targetPoint" />
          </mxGeometry>
        </mxCell>
        <mxCell id="dUpmVTzHK90mjqvTU03A-134" value="拥有" style="rhombus;whiteSpace=wrap;html=1;" vertex="1" parent="1">
          <mxGeometry x="250" y="270" width="70" height="30" as="geometry" />
        </mxCell>
        <mxCell id="dUpmVTzHK90mjqvTU03A-135" value="" style="endArrow=none;html=1;rounded=0;entryX=1;entryY=1;entryDx=0;entryDy=0;exitX=0;exitY=0.5;exitDx=0;exitDy=0;" edge="1" parent="1" source="dUpmVTzHK90mjqvTU03A-134" target="dUpmVTzHK90mjqvTU03A-8">
          <mxGeometry width="50" height="50" relative="1" as="geometry">
            <mxPoint x="560" y="410" as="sourcePoint" />
            <mxPoint x="610" y="360" as="targetPoint" />
          </mxGeometry>
        </mxCell>
        <mxCell id="dUpmVTzHK90mjqvTU03A-136" value="" style="endArrow=none;html=1;rounded=0;entryX=1;entryY=0.5;entryDx=0;entryDy=0;exitX=0;exitY=1;exitDx=0;exitDy=0;" edge="1" parent="1" source="dUpmVTzHK90mjqvTU03A-17" target="dUpmVTzHK90mjqvTU03A-134">
          <mxGeometry width="50" height="50" relative="1" as="geometry">
            <mxPoint x="250" y="315" as="sourcePoint" />
            <mxPoint x="180" y="280" as="targetPoint" />
          </mxGeometry>
        </mxCell>
        <mxCell id="dUpmVTzHK90mjqvTU03A-138" value="数目" style="ellipse;whiteSpace=wrap;html=1;" vertex="1" parent="1">
          <mxGeometry x="215" y="330" width="60" height="20" as="geometry" />
        </mxCell>
        <mxCell id="dUpmVTzHK90mjqvTU03A-139" value="领取时间" style="ellipse;whiteSpace=wrap;html=1;" vertex="1" parent="1">
          <mxGeometry x="290" y="330" width="60" height="20" as="geometry" />
        </mxCell>
        <mxCell id="dUpmVTzHK90mjqvTU03A-140" value="" style="endArrow=none;html=1;rounded=0;exitX=0;exitY=1;exitDx=0;exitDy=0;entryX=0.5;entryY=0;entryDx=0;entryDy=0;" edge="1" parent="1" source="dUpmVTzHK90mjqvTU03A-134" target="dUpmVTzHK90mjqvTU03A-138">
          <mxGeometry width="50" height="50" relative="1" as="geometry">
            <mxPoint x="560" y="320" as="sourcePoint" />
            <mxPoint x="610" y="270" as="targetPoint" />
          </mxGeometry>
        </mxCell>
        <mxCell id="dUpmVTzHK90mjqvTU03A-142" value="" style="endArrow=none;html=1;rounded=0;exitX=1;exitY=1;exitDx=0;exitDy=0;" edge="1" parent="1" source="dUpmVTzHK90mjqvTU03A-134" target="dUpmVTzHK90mjqvTU03A-139">
          <mxGeometry width="50" height="50" relative="1" as="geometry">
            <mxPoint x="277.5" y="302.5" as="sourcePoint" />
            <mxPoint x="255" y="340" as="targetPoint" />
          </mxGeometry>
        </mxCell>
        <mxCell id="dUpmVTzHK90mjqvTU03A-143" value="属于" style="rhombus;whiteSpace=wrap;html=1;" vertex="1" parent="1">
          <mxGeometry x="510" y="320" width="70" height="30" as="geometry" />
        </mxCell>
        <mxCell id="dUpmVTzHK90mjqvTU03A-145" value="" style="endArrow=none;html=1;rounded=0;entryX=1;entryY=1;entryDx=0;entryDy=0;exitX=0;exitY=0.5;exitDx=0;exitDy=0;" edge="1" parent="1" source="dUpmVTzHK90mjqvTU03A-143" target="dUpmVTzHK90mjqvTU03A-17">
          <mxGeometry width="50" height="50" relative="1" as="geometry">
            <mxPoint x="500" y="330" as="sourcePoint" />
            <mxPoint x="610" y="360" as="targetPoint" />
          </mxGeometry>
        </mxCell>
        <mxCell id="dUpmVTzHK90mjqvTU03A-146" value="类别" style="ellipse;whiteSpace=wrap;html=1;" vertex="1" parent="1">
          <mxGeometry x="580" y="240" width="60" height="20" as="geometry" />
        </mxCell>
        <mxCell id="dUpmVTzHK90mjqvTU03A-147" value="" style="endArrow=none;html=1;rounded=0;exitX=1;exitY=0.5;exitDx=0;exitDy=0;entryX=0;entryY=1;entryDx=0;entryDy=0;" edge="1" parent="1" source="dUpmVTzHK90mjqvTU03A-17" target="dUpmVTzHK90mjqvTU03A-146">
          <mxGeometry width="50" height="50" relative="1" as="geometry">
            <mxPoint x="460" y="290" as="sourcePoint" />
            <mxPoint x="595" y="230" as="targetPoint" />
          </mxGeometry>
        </mxCell>
        <mxCell id="dUpmVTzHK90mjqvTU03A-148" value="拥有" style="rhombus;whiteSpace=wrap;html=1;" vertex="1" parent="1">
          <mxGeometry x="370" y="440" width="70" height="30" as="geometry" />
        </mxCell>
        <mxCell id="dUpmVTzHK90mjqvTU03A-149" value="" style="endArrow=none;html=1;rounded=0;entryX=0;entryY=0.5;entryDx=0;entryDy=0;exitX=1;exitY=0.5;exitDx=0;exitDy=0;" edge="1" parent="1" source="dUpmVTzHK90mjqvTU03A-16" target="dUpmVTzHK90mjqvTU03A-148">
          <mxGeometry width="50" height="50" relative="1" as="geometry">
            <mxPoint x="180" y="455" as="sourcePoint" />
            <mxPoint x="302.5" y="417.5" as="targetPoint" />
          </mxGeometry>
        </mxCell>
        <mxCell id="dUpmVTzHK90mjqvTU03A-151" value="" style="endArrow=classic;html=1;rounded=0;entryX=0;entryY=1;entryDx=0;entryDy=0;exitX=1;exitY=0.5;exitDx=0;exitDy=0;" edge="1" parent="1" source="dUpmVTzHK90mjqvTU03A-148" target="dUpmVTzHK90mjqvTU03A-13">
          <mxGeometry width="50" height="50" relative="1" as="geometry">
            <mxPoint x="430" y="400" as="sourcePoint" />
            <mxPoint x="480" y="350" as="targetPoint" />
          </mxGeometry>
        </mxCell>
        <mxCell id="dUpmVTzHK90mjqvTU03A-154" value="id" style="ellipse;whiteSpace=wrap;html=1;fillColor=#f8cecc;strokeColor=#b85450;" vertex="1" parent="1">
          <mxGeometry x="120" y="120" width="60" height="20" as="geometry" />
        </mxCell>
        <mxCell id="dUpmVTzHK90mjqvTU03A-155" value="" style="endArrow=none;html=1;rounded=0;entryX=1;entryY=0.5;entryDx=0;entryDy=0;exitX=0;exitY=0.5;exitDx=0;exitDy=0;" edge="1" parent="1" source="dUpmVTzHK90mjqvTU03A-21" target="dUpmVTzHK90mjqvTU03A-154">
          <mxGeometry width="50" height="50" relative="1" as="geometry">
            <mxPoint x="430" y="400" as="sourcePoint" />
            <mxPoint x="480" y="350" as="targetPoint" />
          </mxGeometry>
        </mxCell>
        <mxCell id="dUpmVTzHK90mjqvTU03A-157" value="" style="endArrow=none;html=1;rounded=0;exitX=0;exitY=0.5;exitDx=0;exitDy=0;entryX=1;entryY=0.5;entryDx=0;entryDy=0;" edge="1" parent="1" source="dUpmVTzHK90mjqvTU03A-13" target="dUpmVTzHK90mjqvTU03A-143">
          <mxGeometry width="50" height="50" relative="1" as="geometry">
            <mxPoint x="520" y="345" as="sourcePoint" />
            <mxPoint x="570" y="340" as="targetPoint" />
          </mxGeometry>
        </mxCell>
        <mxCell id="dUpmVTzHK90mjqvTU03A-158" value="0:m" style="text;html=1;strokeColor=none;fillColor=none;align=center;verticalAlign=middle;whiteSpace=wrap;rounded=0;" vertex="1" parent="1">
          <mxGeometry x="470" y="290" width="60" height="30" as="geometry" />
        </mxCell>
        <mxCell id="dUpmVTzHK90mjqvTU03A-159" value="0:n" style="text;html=1;strokeColor=none;fillColor=none;align=center;verticalAlign=middle;whiteSpace=wrap;rounded=0;" vertex="1" parent="1">
          <mxGeometry x="586" y="320" width="60" height="30" as="geometry" />
        </mxCell>
      </root>
    </mxGraphModel>
  </diagram>
</mxfile>
